<svg width="66" height="39" viewBox="0 0 66 39" fill="none" xmlns="http://www.w3.org/2000/svg">
<path d="M66 19.5C66 30.2696 57.4762 39 46.9615 39C36.4469 39 27.9231 30.2696 27.9231 19.5C27.9231 8.73045 36.4469 0 46.9615 0C57.4762 0 66 8.73045 66 19.5Z" fill="#1D242B"/>
<ellipse cx="19.0385" cy="19.5" rx="19.0385" ry="19.5" fill="#0077C0"/>
<rect x="11.7412" y="21.2084" width="8.56731" height="2.2158" fill="white"/>
<rect x="11.7412" y="10.1294" width="8.56731" height="3.16543" fill="white"/>
<rect x="11.4239" y="10.1294" width="3.49038" height="19.9422" fill="white"/>
<rect x="11.4239" y="10.1294" width="15.2308" height="13.2948" rx="6.6474" fill="white"/>
<path d="M11.4231 13.2961L19.5232 13.2943C21.5337 13.2938 23.1638 14.9233 23.1643 16.9337C23.1648 18.9442 21.5353 20.5743 19.5249 20.5748L11.4247 20.5766L11.4231 13.2961Z" fill="#0077C0"/>
<path d="M47.9135 10.1294L55.333 30.0716H40.494L47.9135 10.1294Z" fill="white"/>
<path d="M47.9135 21.3344L51.7606 30.5022H44.0663L47.9135 21.3344Z" fill="#1D242B"/>
</svg>
