<svg width="291" height="186" viewBox="0 0 291 186" fill="none" xmlns="http://www.w3.org/2000/svg">
<path d="M18.9 148C21.5 148 23.8167 148.567 25.85 149.7C27.9167 150.833 29.5333 152.433 30.7 154.5C31.8667 156.567 32.45 158.95 32.45 161.65C32.45 164.35 31.8667 166.75 30.7 168.85C29.5333 170.917 27.9167 172.517 25.85 173.65C23.8167 174.783 21.5 175.35 18.9 175.35C15.3 175.35 12.45 174.15 10.35 171.75V184.7H4.1V148.3H10.05V151.8C11.0833 150.533 12.35 149.583 13.85 148.95C15.3833 148.317 17.0667 148 18.9 148ZM18.2 170C20.5 170 22.3833 169.233 23.85 167.7C25.35 166.167 26.1 164.15 26.1 161.65C26.1 159.15 25.35 157.133 23.85 155.6C22.3833 154.067 20.5 153.3 18.2 153.3C16.7 153.3 15.35 153.65 14.15 154.35C12.95 155.017 12 155.983 11.3 157.25C10.6 158.517 10.25 159.983 10.25 161.65C10.25 163.317 10.6 164.783 11.3 166.05C12 167.317 12.95 168.3 14.15 169C15.35 169.667 16.7 170 18.2 170ZM64.2273 148.3V170.95C64.2273 180.35 59.6107 185.05 50.3773 185.05C47.944 185.05 45.6107 184.717 43.3773 184.05C41.1773 183.417 39.3607 182.483 37.9273 181.25L40.7273 176.55C41.8607 177.517 43.244 178.283 44.8773 178.85C46.5107 179.417 48.2273 179.7 50.0273 179.7C52.7607 179.7 54.7607 179.033 56.0273 177.7C57.3273 176.4 57.9773 174.383 57.9773 171.65V170.4C56.9773 171.5 55.7607 172.35 54.3273 172.95C52.894 173.517 51.344 173.8 49.6773 173.8C46.1107 173.8 43.294 172.817 41.2273 170.85C39.194 168.883 38.1773 165.933 38.1773 162V148.3H44.4273V161.2C44.4273 163.567 44.9607 165.35 46.0273 166.55C47.1273 167.717 48.6773 168.3 50.6773 168.3C52.9107 168.3 54.6773 167.617 55.9773 166.25C57.3107 164.883 57.9773 162.9 57.9773 160.3V148.3H64.2273ZM98.5605 137.9V175H92.5605V171.55C91.5272 172.817 90.2439 173.767 88.7105 174.4C87.2105 175.033 85.5439 175.35 83.7105 175.35C81.1439 175.35 78.8272 174.783 76.7605 173.65C74.7272 172.517 73.1272 170.917 71.9605 168.85C70.7939 166.75 70.2105 164.35 70.2105 161.65C70.2105 158.95 70.7939 156.567 71.9605 154.5C73.1272 152.433 74.7272 150.833 76.7605 149.7C78.8272 148.567 81.1439 148 83.7105 148C85.4772 148 87.0939 148.3 88.5605 148.9C90.0272 149.5 91.2772 150.4 92.3105 151.6V137.9H98.5605ZM84.4605 170C85.9605 170 87.3105 169.667 88.5105 169C89.7105 168.3 90.6605 167.317 91.3605 166.05C92.0605 164.783 92.4105 163.317 92.4105 161.65C92.4105 159.983 92.0605 158.517 91.3605 157.25C90.6605 155.983 89.7105 155.017 88.5105 154.35C87.3105 153.65 85.9605 153.3 84.4605 153.3C82.9605 153.3 81.6105 153.65 80.4105 154.35C79.2105 155.017 78.2605 155.983 77.5605 157.25C76.8605 158.517 76.5105 159.983 76.5105 161.65C76.5105 163.317 76.8605 164.783 77.5605 166.05C78.2605 167.317 79.2105 168.3 80.4105 169C81.6105 169.667 82.9605 170 84.4605 170ZM118.737 175.35C116.037 175.35 113.603 174.767 111.437 173.6C109.27 172.433 107.57 170.817 106.337 168.75C105.137 166.65 104.537 164.283 104.537 161.65C104.537 159.017 105.137 156.667 106.337 154.6C107.57 152.533 109.27 150.917 111.437 149.75C113.603 148.583 116.037 148 118.737 148C121.47 148 123.92 148.583 126.087 149.75C128.253 150.917 129.937 152.533 131.137 154.6C132.37 156.667 132.987 159.017 132.987 161.65C132.987 164.283 132.37 166.65 131.137 168.75C129.937 170.817 128.253 172.433 126.087 173.6C123.92 174.767 121.47 175.35 118.737 175.35ZM118.737 170C121.037 170 122.937 169.233 124.437 167.7C125.937 166.167 126.687 164.15 126.687 161.65C126.687 159.15 125.937 157.133 124.437 155.6C122.937 154.067 121.037 153.3 118.737 153.3C116.437 153.3 114.537 154.067 113.037 155.6C111.57 157.133 110.837 159.15 110.837 161.65C110.837 164.15 111.57 166.167 113.037 167.7C114.537 169.233 116.437 170 118.737 170ZM147.213 175.35C145.047 175.35 142.93 175.067 140.863 174.5C138.797 173.933 137.147 173.217 135.913 172.35L138.313 167.6C139.513 168.4 140.947 169.05 142.613 169.55C144.313 170.017 145.98 170.25 147.613 170.25C151.347 170.25 153.213 169.267 153.213 167.3C153.213 166.367 152.73 165.717 151.763 165.35C150.83 164.983 149.313 164.633 147.213 164.3C145.013 163.967 143.213 163.583 141.813 163.15C140.447 162.717 139.247 161.967 138.213 160.9C137.213 159.8 136.713 158.283 136.713 156.35C136.713 153.817 137.763 151.8 139.863 150.3C141.997 148.767 144.863 148 148.463 148C150.297 148 152.13 148.217 153.963 148.65C155.797 149.05 157.297 149.6 158.463 150.3L156.063 155.05C153.797 153.717 151.247 153.05 148.413 153.05C146.58 153.05 145.18 153.333 144.213 153.9C143.28 154.433 142.813 155.15 142.813 156.05C142.813 157.05 143.313 157.767 144.313 158.2C145.347 158.6 146.93 158.983 149.063 159.35C151.197 159.683 152.947 160.067 154.313 160.5C155.68 160.933 156.847 161.667 157.813 162.7C158.813 163.733 159.313 165.2 159.313 167.1C159.313 169.6 158.23 171.6 156.063 173.1C153.897 174.6 150.947 175.35 147.213 175.35Z" fill="#0077C0"/>
<path d="M204.614 148.3V175H198.664V171.55C197.631 172.817 196.347 173.767 194.814 174.4C193.314 175.033 191.647 175.35 189.814 175.35C187.214 175.35 184.881 174.783 182.814 173.65C180.781 172.517 179.181 170.917 178.014 168.85C176.881 166.783 176.314 164.383 176.314 161.65C176.314 158.917 176.881 156.533 178.014 154.5C179.181 152.433 180.781 150.833 182.814 149.7C184.881 148.567 187.214 148 189.814 148C191.547 148 193.131 148.3 194.564 148.9C196.031 149.5 197.297 150.383 198.364 151.55V148.3H204.614ZM190.514 170C192.814 170 194.714 169.233 196.214 167.7C197.714 166.167 198.464 164.15 198.464 161.65C198.464 159.15 197.714 157.133 196.214 155.6C194.714 154.067 192.814 153.3 190.514 153.3C188.214 153.3 186.314 154.067 184.814 155.6C183.347 157.133 182.614 159.15 182.614 161.65C182.614 164.15 183.347 166.167 184.814 167.7C186.314 169.233 188.214 170 190.514 170ZM212.791 148.3H219.041V175H212.791V148.3ZM215.941 143.9C214.808 143.9 213.858 143.55 213.091 142.85C212.325 142.117 211.941 141.217 211.941 140.15C211.941 139.083 212.325 138.2 213.091 137.5C213.858 136.767 214.808 136.4 215.941 136.4C217.075 136.4 218.025 136.75 218.791 137.45C219.558 138.117 219.941 138.967 219.941 140C219.941 141.1 219.558 142.033 218.791 142.8C218.058 143.533 217.108 143.9 215.941 143.9ZM238.145 163.55L233.495 167.95V175H227.245V137.9H233.495V160.3L246.445 148.3H253.945L242.795 159.5L254.995 175H247.395L238.145 163.55ZM270.609 170.05C273.509 170.05 275.925 169.083 277.859 167.15L281.159 171C279.992 172.433 278.492 173.517 276.659 174.25C274.825 174.983 272.759 175.35 270.459 175.35C267.525 175.35 264.942 174.767 262.709 173.6C260.475 172.433 258.742 170.817 257.509 168.75C256.309 166.65 255.709 164.283 255.709 161.65C255.709 159.05 256.292 156.717 257.459 154.65C258.659 152.55 260.292 150.917 262.359 149.75C264.459 148.583 266.825 148 269.459 148C271.959 148 274.225 148.55 276.259 149.65C278.325 150.717 279.959 152.267 281.159 154.3C282.359 156.3 282.959 158.65 282.959 161.35L262.509 165.35C263.142 166.883 264.159 168.05 265.559 168.85C266.959 169.65 268.642 170.05 270.609 170.05ZM269.459 153C267.159 153 265.292 153.75 263.859 155.25C262.459 156.75 261.759 158.767 261.759 161.3V161.35L276.859 158.45C276.425 156.817 275.542 155.5 274.209 154.5C272.909 153.5 271.325 153 269.459 153Z" fill="#1D242B"/>
<path d="M253 61.603C253 95.6255 226.137 123.206 193 123.206C159.863 123.206 133 95.6255 133 61.603C133 27.5806 159.863 0 193 0C226.137 0 253 27.5806 253 61.603Z" fill="#1D242B"/>
<ellipse cx="105" cy="61.603" rx="60" ry="61.603" fill="#0077C0"/>
<rect x="82.0026" y="67" width="27" height="7" fill="white"/>
<rect x="82.0026" y="32" width="27" height="10" fill="white"/>
<rect x="81.0026" y="32" width="11" height="63" fill="white"/>
<rect x="81.0026" y="32" width="48" height="42" rx="20" fill="white"/>
<path d="M81 42.0042L106.5 41.9984C112.851 41.997 118.001 47.1445 118.003 53.4958C118.004 59.8471 112.857 64.997 106.505 64.9984L81.0052 65.0042L81 42.0042Z" fill="#0077C0"/>
<path d="M196 32L219.383 95H172.617L196 32Z" fill="white"/>
<path d="M196 67.3983L208.124 96.3605H183.876L196 67.3983Z" fill="#1D242B"/>
</svg>
