<svg width="180" height="32" viewBox="0 0 180 32" fill="none" xmlns="http://www.w3.org/2000/svg">
<path d="M10.096 7.72C11.76 7.72 13.2427 8.08267 14.544 8.808C15.8667 9.53333 16.9013 10.5573 17.648 11.88C18.3947 13.2027 18.768 14.728 18.768 16.456C18.768 18.184 18.3947 19.72 17.648 21.064C16.9013 22.3867 15.8667 23.4107 14.544 24.136C13.2427 24.8613 11.76 25.224 10.096 25.224C7.792 25.224 5.968 24.456 4.624 22.92V31.208H0.624V7.912H4.432V10.152C5.09333 9.34133 5.904 8.73333 6.864 8.328C7.84533 7.92267 8.92267 7.72 10.096 7.72ZM9.648 21.8C11.12 21.8 12.3253 21.3093 13.264 20.328C14.224 19.3467 14.704 18.056 14.704 16.456C14.704 14.856 14.224 13.5653 13.264 12.584C12.3253 11.6027 11.12 11.112 9.648 11.112C8.688 11.112 7.824 11.336 7.056 11.784C6.288 12.2107 5.68 12.8293 5.232 13.64C4.784 14.4507 4.56 15.3893 4.56 16.456C4.56 17.5227 4.784 18.4613 5.232 19.272C5.68 20.0827 6.288 20.712 7.056 21.16C7.824 21.5867 8.688 21.8 9.648 21.8ZM39.1055 7.912V22.408C39.1055 28.424 36.1508 31.432 30.2415 31.432C28.6842 31.432 27.1908 31.2187 25.7615 30.792C24.3535 30.3867 23.1908 29.7893 22.2735 29L24.0655 25.992C24.7908 26.6107 25.6762 27.1013 26.7215 27.464C27.7668 27.8267 28.8655 28.008 30.0175 28.008C31.7668 28.008 33.0468 27.5813 33.8575 26.728C34.6895 25.896 35.1055 24.6053 35.1055 22.856V22.056C34.4655 22.76 33.6868 23.304 32.7695 23.688C31.8522 24.0507 30.8602 24.232 29.7935 24.232C27.5108 24.232 25.7082 23.6027 24.3855 22.344C23.0842 21.0853 22.4335 19.1973 22.4335 16.68V7.912H26.4335V16.168C26.4335 17.6827 26.7748 18.824 27.4575 19.592C28.1615 20.3387 29.1535 20.712 30.4335 20.712C31.8628 20.712 32.9935 20.2747 33.8255 19.4C34.6788 18.5253 35.1055 17.256 35.1055 15.592V7.912H39.1055ZM61.0788 1.256V25H57.2388V22.792C56.5774 23.6027 55.7561 24.2107 54.7748 24.616C53.8148 25.0213 52.7481 25.224 51.5748 25.224C49.9321 25.224 48.4494 24.8613 47.1268 24.136C45.8254 23.4107 44.8014 22.3867 44.0548 21.064C43.3081 19.72 42.9348 18.184 42.9348 16.456C42.9348 14.728 43.3081 13.2027 44.0548 11.88C44.8014 10.5573 45.8254 9.53333 47.1268 8.808C48.4494 8.08267 49.9321 7.72 51.5748 7.72C52.7054 7.72 53.7401 7.912 54.6788 8.296C55.6174 8.68 56.4174 9.256 57.0788 10.024V1.256H61.0788ZM52.0548 21.8C53.0148 21.8 53.8788 21.5867 54.6468 21.16C55.4148 20.712 56.0228 20.0827 56.4708 19.272C56.9188 18.4613 57.1428 17.5227 57.1428 16.456C57.1428 15.3893 56.9188 14.4507 56.4708 13.64C56.0228 12.8293 55.4148 12.2107 54.6468 11.784C53.8788 11.336 53.0148 11.112 52.0548 11.112C51.0948 11.112 50.2308 11.336 49.4628 11.784C48.6948 12.2107 48.0868 12.8293 47.6388 13.64C47.1908 14.4507 46.9668 15.3893 46.9668 16.456C46.9668 17.5227 47.1908 18.4613 47.6388 19.272C48.0868 20.0827 48.6948 20.712 49.4628 21.16C50.2308 21.5867 51.0948 21.8 52.0548 21.8ZM73.9915 25.224C72.2635 25.224 70.7062 24.8507 69.3195 24.104C67.9328 23.3573 66.8448 22.3227 66.0555 21C65.2875 19.656 64.9035 18.1413 64.9035 16.456C64.9035 14.7707 65.2875 13.2667 66.0555 11.944C66.8448 10.6213 67.9328 9.58667 69.3195 8.84C70.7062 8.09333 72.2635 7.72 73.9915 7.72C75.7408 7.72 77.3088 8.09333 78.6955 8.84C80.0822 9.58667 81.1595 10.6213 81.9275 11.944C82.7168 13.2667 83.1115 14.7707 83.1115 16.456C83.1115 18.1413 82.7168 19.656 81.9275 21C81.1595 22.3227 80.0822 23.3573 78.6955 24.104C77.3088 24.8507 75.7408 25.224 73.9915 25.224ZM73.9915 21.8C75.4635 21.8 76.6795 21.3093 77.6395 20.328C78.5995 19.3467 79.0795 18.056 79.0795 16.456C79.0795 14.856 78.5995 13.5653 77.6395 12.584C76.6795 11.6027 75.4635 11.112 73.9915 11.112C72.5195 11.112 71.3035 11.6027 70.3435 12.584C69.4048 13.5653 68.9355 14.856 68.9355 16.456C68.9355 18.056 69.4048 19.3467 70.3435 20.328C71.3035 21.3093 72.5195 21.8 73.9915 21.8ZM92.2165 25.224C90.8298 25.224 89.4752 25.0427 88.1525 24.68C86.8298 24.3173 85.7738 23.8587 84.9845 23.304L86.5205 20.264C87.2885 20.776 88.2058 21.192 89.2725 21.512C90.3605 21.8107 91.4272 21.96 92.4725 21.96C94.8618 21.96 96.0565 21.3307 96.0565 20.072C96.0565 19.4747 95.7472 19.0587 95.1285 18.824C94.5312 18.5893 93.5605 18.3653 92.2165 18.152C90.8085 17.9387 89.6565 17.6933 88.7605 17.416C87.8858 17.1387 87.1178 16.6587 86.4565 15.976C85.8165 15.272 85.4965 14.3013 85.4965 13.064C85.4965 11.4427 86.1685 10.152 87.5125 9.192C88.8778 8.21067 90.7125 7.72 93.0165 7.72C94.1898 7.72 95.3632 7.85867 96.5365 8.136C97.7098 8.392 98.6698 8.744 99.4165 9.192L97.8805 12.232C96.4298 11.3787 94.7978 10.952 92.9845 10.952C91.8112 10.952 90.9152 11.1333 90.2965 11.496C89.6992 11.8373 89.4005 12.296 89.4005 12.872C89.4005 13.512 89.7205 13.9707 90.3605 14.248C91.0218 14.504 92.0352 14.7493 93.4005 14.984C94.7658 15.1973 95.8858 15.4427 96.7605 15.72C97.6352 15.9973 98.3818 16.4667 99.0005 17.128C99.6405 17.7893 99.9605 18.728 99.9605 19.944C99.9605 21.544 99.2672 22.824 97.8805 23.784C96.4938 24.744 94.6058 25.224 92.2165 25.224Z" fill="#0077C0"/>
<path d="M128.953 7.912V25H125.145V22.792C124.484 23.6027 123.662 24.2107 122.681 24.616C121.721 25.0213 120.654 25.224 119.481 25.224C117.817 25.224 116.324 24.8613 115.001 24.136C113.7 23.4107 112.676 22.3867 111.929 21.064C111.204 19.7413 110.841 18.2053 110.841 16.456C110.841 14.7067 111.204 13.1813 111.929 11.88C112.676 10.5573 113.7 9.53333 115.001 8.808C116.324 8.08267 117.817 7.72 119.481 7.72C120.59 7.72 121.604 7.912 122.521 8.296C123.46 8.68 124.27 9.24533 124.953 9.992V7.912H128.953ZM119.929 21.8C121.401 21.8 122.617 21.3093 123.577 20.328C124.537 19.3467 125.017 18.056 125.017 16.456C125.017 14.856 124.537 13.5653 123.577 12.584C122.617 11.6027 121.401 11.112 119.929 11.112C118.457 11.112 117.241 11.6027 116.281 12.584C115.342 13.5653 114.873 14.856 114.873 16.456C114.873 18.056 115.342 19.3467 116.281 20.328C117.241 21.3093 118.457 21.8 119.929 21.8ZM134.187 7.912H138.187V25H134.187V7.912ZM136.203 5.096C135.477 5.096 134.869 4.872 134.379 4.424C133.888 3.95467 133.643 3.37867 133.643 2.696C133.643 2.01333 133.888 1.448 134.379 0.999998C134.869 0.530666 135.477 0.296 136.203 0.296C136.928 0.296 137.536 0.519999 138.027 0.967999C138.517 1.39467 138.763 1.93867 138.763 2.6C138.763 3.304 138.517 3.90133 138.027 4.392C137.557 4.86133 136.949 5.096 136.203 5.096ZM150.413 17.672L147.437 20.488V25H143.437V1.256H147.437V15.592L155.725 7.912H160.525L153.389 15.08L161.197 25H156.333L150.413 17.672ZM171.19 21.832C173.046 21.832 174.592 21.2133 175.83 19.976L177.942 22.44C177.195 23.3573 176.235 24.0507 175.062 24.52C173.888 24.9893 172.566 25.224 171.094 25.224C169.216 25.224 167.563 24.8507 166.134 24.104C164.704 23.3573 163.595 22.3227 162.806 21C162.038 19.656 161.654 18.1413 161.654 16.456C161.654 14.792 162.027 13.2987 162.774 11.976C163.542 10.632 164.587 9.58667 165.91 8.84C167.254 8.09333 168.768 7.72 170.454 7.72C172.054 7.72 173.504 8.072 174.806 8.776C176.128 9.45867 177.174 10.4507 177.942 11.752C178.71 13.032 179.094 14.536 179.094 16.264L166.006 18.824C166.411 19.8053 167.062 20.552 167.958 21.064C168.854 21.576 169.931 21.832 171.19 21.832ZM170.454 10.92C168.982 10.92 167.787 11.4 166.87 12.36C165.974 13.32 165.526 14.6107 165.526 16.232V16.264L175.19 14.408C174.912 13.3627 174.347 12.52 173.494 11.88C172.662 11.24 171.648 10.92 170.454 10.92Z" fill="#1D242B"/>
</svg>
